<?xml version="1.0" ?><svg style="enable-background:new 0 0 512 512;" version="1.1" viewBox="0 0 512 512" xml:space="preserve" xmlns="http://www.w3.org/2000/svg" xmlns:xlink="http://www.w3.org/1999/xlink"><g id="_x36_._Globe_x2C__magnifier_glass_x2C__search_x2C__development"><g><g><path d="M302.727,84.388c-61.13-61.12-160.24-61.12-221.36,0c-61.11,61.11-61.11,160.22,0,221.36     c61.12,61.11,160.23,61.11,221.36,0C363.847,244.608,363.847,145.498,302.727,84.388z" style="fill:#BDC3C7;"/><path d="M189.737,86.838c-20.63,1.02-38.59,23.39-48.13,56.02c-12.48-2.86-24.98-6.81-37.47-11.84     C123.707,104.588,154.777,87.308,189.737,86.838z" style="fill:#2980B9;"/><path d="M134.297,196.528c0,19.46,2.65,37.76,7.29,53.63c-12.48,2.86-24.98,6.8-37.48,11.83     c-13.54-18.29-21.56-40.96-21.56-65.46H134.297z" style="fill:#2980B9;"/><path d="M299.887,196.528h-51.75c0-19.42-2.64-37.7-7.27-53.55c12.54-2.88,25.03-6.85,37.46-11.91     C291.867,149.358,299.887,172.028,299.887,196.528z" style="fill:#2980B9;"/><path d="M278.327,261.998c-19.57,26.45-50.64,43.75-85.62,44.22c20.65-1.03,38.63-23.44,48.16-56.13     C253.407,252.968,265.897,256.938,278.327,261.998z" style="fill:#2980B9;"/><path d="M191.217,244.438v61.8c-0.49,0-0.97,0-1.46-0.02c-0.01,0-0.02,0-0.02,0     c-20.64-1.02-38.61-23.4-48.15-56.06C158.167,246.348,174.717,244.458,191.217,244.438z" style="fill:#2980B9;"/><path d="M191.217,196.528h56.92c0,19.43-2.64,37.7-7.27,53.56c-16.48-3.78-33.04-5.67-49.65-5.65V196.528z     " style="fill:#2980B9;"/><path d="M191.217,148.608v47.92h-56.92c0-19.47,2.65-37.79,7.31-53.67     C158.177,146.668,174.727,148.578,191.217,148.608z" style="fill:#2980B9;"/><path d="M192.707,86.838c20.66,1.03,38.63,23.44,48.16,56.14c-16.47,3.78-33.04,5.66-49.65,5.63v-61.79     c0.49,0,0.98,0,1.47,0.02C192.687,86.838,192.697,86.838,192.707,86.838z" style="fill:#2980B9;"/><path d="M141.587,250.158c9.54,32.66,27.51,55.04,48.15,56.06c-34.98-0.47-66.07-17.77-85.63-44.23     C116.607,256.958,129.107,253.018,141.587,250.158z" style="fill:#3498DB;"/><path d="M141.607,142.858c-4.66,15.88-7.31,34.2-7.31,53.67h-51.75c0-24.52,8.04-47.21,21.59-65.51     C116.627,136.048,129.127,139.998,141.607,142.858z" style="fill:#3498DB;"/><path d="M192.707,86.838c34.98,0.47,66.06,17.78,85.62,44.23c-12.43,5.06-24.92,9.03-37.46,11.91     C231.337,110.278,213.367,87.868,192.707,86.838z" style="fill:#3498DB;"/><path d="M248.137,196.528h51.75c0,24.51-8.02,47.18-21.56,65.47c-12.43-5.06-24.92-9.03-37.46-11.91     C245.497,234.228,248.137,215.958,248.137,196.528z" style="fill:#3498DB;"/><path d="M240.867,250.088c-9.53,32.69-27.51,55.1-48.16,56.13c-0.01,0-0.02,0-0.02,0     c-0.49,0.02-0.98,0.02-1.47,0.02v-61.8C207.827,244.418,224.387,246.308,240.867,250.088z" style="fill:#3498DB;"/><path d="M191.217,196.528v47.91c-16.5,0.02-33.05,1.91-49.63,5.72c-4.64-15.87-7.29-34.17-7.29-53.63     H191.217z" style="fill:#3498DB;"/><path d="M248.137,196.528h-56.92v-47.92c16.61,0.03,33.18-1.85,49.65-5.63     C245.497,158.828,248.137,177.108,248.137,196.528z" style="fill:#3498DB;"/><path d="M191.217,86.818v61.79c-16.49-0.03-33.04-1.94-49.61-5.75c9.54-32.63,27.5-55,48.13-56.02     c0,0,0.01,0,0.02,0C190.247,86.818,190.727,86.818,191.217,86.818z" style="fill:#3498DB;"/><path d="M470.437,436.528c7.02,6.24,7.78,16.38,2.54,21.63l-1.58,1.57l-4.32,4.32l-4.32,4.33l-1.57,1.57     c-5.25,5.26-15.39,4.5-21.63-2.54l-101.96-114.81c-10.01-11.28-9.91-18.83-5.24-22.16c3.35-4.67,11.97-5.89,23.27,4.15     L470.437,436.528z" style="fill:#7F8C8D;"/><path d="M191.217,316.239c-0.631,0-1.248-0.003-1.878-0.029c-5.518-0.231-9.804-4.892-9.573-10.409     c0.231-5.519,4.878-9.803,10.41-9.573c0.349,0.016,0.692,0.012,1.042,0.012c0.35,0,0.701,0.004,1.051-0.012     c5.526-0.216,10.179,4.055,10.41,9.573c0.231,5.518-4.055,10.178-9.573,10.409C192.476,316.236,191.846,316.239,191.217,316.239z     "/><path d="M189.74,316.218c-0.046,0-0.091,0-0.137-0.001c-37.13-0.499-71.223-18.098-93.537-48.285     c-15.384-20.781-23.519-45.474-23.519-71.404c0-25.939,8.145-50.65,23.553-71.46c22.325-30.151,56.405-47.73,93.502-48.229     c5.515-0.081,10.059,4.342,10.133,9.865s-4.342,10.059-9.865,10.133c-30.8,0.414-59.12,15.042-77.698,40.132     c-12.84,17.341-19.626,37.936-19.626,59.559c0,21.613,6.777,42.192,19.597,59.51c18.572,25.124,46.9,39.767,77.727,40.181     c5.522,0.074,9.939,4.611,9.865,10.133C199.663,311.829,195.2,316.218,189.74,316.218z"/><path d="M192.694,96.839c-0.138,0-0.277-0.002-0.416-0.008c-0.354-0.014-0.708-0.011-1.062-0.012     c-0.354,0.001-0.699-0.002-1.052,0.012c-5.508,0.234-10.174-4.064-10.4-9.583c-0.226-5.518,4.065-10.174,9.583-10.4     c1.251-0.051,2.494-0.051,3.746,0c5.519,0.226,9.809,4.882,9.583,10.4C202.459,92.626,198.029,96.839,192.694,96.839z"/><path d="M192.704,316.218c-5.46,0-9.923-4.389-9.996-9.866c-0.074-5.521,4.342-10.059,9.865-10.133     c30.808-0.414,59.134-15.055,77.715-40.168c12.822-17.321,19.599-37.902,19.599-59.522c0-21.613-6.777-42.192-19.597-59.51     c-18.579-25.124-46.905-39.767-77.717-40.181c-5.522-0.074-9.939-4.611-9.865-10.133c0.074-5.523,4.626-9.934,10.133-9.865     c37.114,0.499,71.203,18.097,93.526,48.283c15.385,20.783,23.52,45.476,23.52,71.406c0,25.936-8.134,50.633-23.523,71.42     c-22.327,30.176-56.415,47.771-93.523,48.269C192.796,316.218,192.749,316.218,192.704,316.218z"/><path d="M191.217,316.258c-0.643,0-1.285-0.014-1.917-0.05c-0.019-0.001-0.038-0.001-0.057-0.002     c-24.64-1.218-46.043-24.86-57.255-63.245c-5.032-17.208-7.691-36.723-7.691-56.434c0-19.755,2.667-39.288,7.715-56.486     c11.211-38.348,32.607-61.975,57.231-63.192c0.019-0.001,0.037-0.002,0.056-0.002c1.262-0.071,2.558-0.073,3.843,0     c0.021,0,0.042,0.001,0.063,0.002c24.658,1.229,46.064,24.904,57.263,63.33c5.017,17.174,7.669,36.661,7.669,56.348     c0,19.683-2.652,39.172-7.671,56.362c-11.198,38.415-32.604,62.085-57.261,63.315c-0.022,0.001-0.045,0.002-0.067,0.003     C192.498,316.245,191.857,316.258,191.217,316.258z M190.148,296.226c0.081,0.003,0.161,0.007,0.239,0.012     c0.551,0.035,1.121,0.035,1.683,0c0.08-0.006,0.159-0.01,0.239-0.013c15.249-0.841,30.532-20.031,38.958-48.936     c4.495-15.398,6.871-32.95,6.871-50.761c0-17.815-2.375-35.363-6.869-50.746c-8.431-28.928-23.721-48.125-38.975-48.952     c-0.076-0.003-0.151-0.007-0.224-0.011c-0.562-0.035-1.132-0.035-1.683-0.001c-0.085,0.005-0.17,0.01-0.255,0.013     c-15.221,0.833-30.491,19.982-38.926,48.833c-4.521,15.404-6.908,32.989-6.908,50.864c0,17.837,2.382,35.412,6.888,50.823     C159.623,276.239,174.909,295.406,190.148,296.226z"/><path d="M299.887,206.528H82.547c-5.523,0-10-4.477-10-10s4.477-10,10-10h217.34c5.523,0,10,4.477,10,10     S305.41,206.528,299.887,206.528z"/><path d="M191.599,158.609c-0.134,0-0.266,0-0.4,0c-17.204-0.032-34.643-2.052-51.833-6.004     c-12.893-2.955-25.969-7.082-38.86-12.267c-5.009-1.899-7.653-7.441-5.921-12.557c1.772-5.231,7.451-8.036,12.68-6.263     c0.121,0.041,0.261,0.091,0.392,0.142c0.072,0.027,0.144,0.055,0.215,0.084c11.954,4.813,24.055,8.638,35.969,11.368     c15.741,3.62,31.684,5.469,47.395,5.498c0.121,0,0.243,0,0.365,0c15.661,0,31.481-1.809,47.03-5.377     c11.967-2.749,24.055-6.593,35.926-11.426c0.101-0.041,0.201-0.08,0.303-0.117c0.144-0.054,0.298-0.109,0.432-0.153     c5.251-1.719,10.897,1.139,12.618,6.387c1.672,5.102-0.982,10.583-5.953,12.465c-12.816,5.208-25.887,9.359-38.851,12.337     C226.091,156.63,208.763,158.609,191.599,158.609z"/><path d="M278.409,272.031c-1.033,0-2.083-0.161-3.118-0.5c-0.131-0.043-0.277-0.095-0.418-0.147     c-0.106-0.039-0.212-0.08-0.317-0.123c-11.874-4.833-23.961-8.677-35.928-11.426c-15.691-3.599-31.657-5.426-47.399-5.396     c-15.755,0.019-31.704,1.858-47.402,5.466c-11.953,2.739-24.059,6.561-35.987,11.361c-0.077,0.031-0.155,0.062-0.232,0.091     c-0.11,0.042-0.226,0.084-0.326,0.118c-5.222,1.796-10.913-0.979-12.71-6.2c-1.763-5.123,0.874-10.696,5.905-12.604     c12.865-5.171,25.944-9.295,38.877-12.259c17.152-3.942,34.6-5.952,51.852-5.973c17.281,0.014,34.731,1.965,51.898,5.903     c12.964,2.978,26.033,7.127,38.852,12.337c4.971,1.882,7.627,7.363,5.955,12.465     C286.528,269.357,282.614,272.031,278.409,272.031z"/><path d="M191.217,316.239c-5.523,0-10-4.478-10-10V86.818c0-5.523,4.477-10,10-10s10,4.477,10,10v219.42     C201.217,311.761,196.74,316.239,191.217,316.239z"/><path d="M452.351,483.375c-0.253,0-0.506-0.004-0.761-0.012c-7.345-0.217-14.458-3.614-19.517-9.321L330.12,359.239     c-7.949-8.958-11.548-17.295-10.7-24.783c0.499-4.404,2.55-8.302,5.827-11.135c3.028-3.503,7.293-5.703,12.176-6.248     c5.488-0.61,14.257,0.633,24.846,10.04l114.807,101.938c5.692,5.06,9.081,12.168,9.3,19.508     c0.193,6.468-2.052,12.386-6.322,16.664l-11.796,11.797C464.154,481.131,458.527,483.375,452.351,483.375z M339.475,337.462     c0.454,1.436,1.898,4.326,5.601,8.499l101.958,114.808c1.399,1.579,3.322,2.55,5.148,2.604c1.024,0.036,1.683-0.244,1.927-0.487     l5.888-5.898c0.003-0.003,0.005-0.006,0.008-0.008l5.924-5.914c0.232-0.233,0.484-0.935,0.456-1.907     c-0.055-1.833-1.024-3.76-2.592-5.153L348.988,342.066c-4.669-4.148-7.834-5.085-9.028-5.132     C339.805,337.116,339.643,337.292,339.475,337.462z"/><path d="M331.407,339.928c-2.559,0-5.118-0.977-7.071-2.929l-25.77-25.77c-3.905-3.905-3.906-10.237,0-14.143     c3.905-3.904,10.237-3.904,14.142,0l25.77,25.77c3.905,3.905,3.906,10.237,0,14.143     C336.526,338.952,333.966,339.928,331.407,339.928z"/><path d="M192.042,361.504c-42.644,0-85.285-16.228-117.746-48.684C9.383,247.875,9.384,142.23,74.296,77.317h0     c64.922-64.921,170.568-64.923,235.501,0c64.923,64.913,64.924,170.559,0.002,235.502     C277.331,345.275,234.686,361.504,192.042,361.504z M88.438,91.46c-57.116,57.116-57.115,150.075,0.001,207.22     c28.558,28.554,66.085,42.832,103.603,42.835c37.527,0.003,75.043-14.276,103.615-42.838c57.124-57.143,57.125-150.101,0-207.216     C238.521,34.334,145.563,34.334,88.438,91.46L88.438,91.46z"/></g></g></g><g id="Layer_1"/></svg>